<?xml version="1.0" encoding="utf-8"?>
<!-- Generator: Adobe Illustrator 27.2.0, SVG Export Plug-In . SVG Version: 6.00 Build 0)  -->
<svg version="1.1" xmlns="http://www.w3.org/2000/svg" xmlns:xlink="http://www.w3.org/1999/xlink" x="0px" y="0px"
	 viewBox="0 0 400.27 408.34" style="enable-background:new 0 0 400.27 408.34;" xml:space="preserve">
<style type="text/css">
	.st0{fill:none;stroke:#3366FF;stroke-width:0.5102;stroke-linecap:round;stroke-linejoin:round;stroke-miterlimit:10;}
	.st1{fill:none;}
	.st2{fill:#3366FF;}
	.st3{fill:none;stroke:#9D5901;stroke-width:0;stroke-linecap:round;stroke-linejoin:round;stroke-miterlimit:10;}
	.st4{fill:none;stroke:#0072FF;stroke-width:0.2551;stroke-linecap:round;stroke-linejoin:round;stroke-miterlimit:10;}
	.st5{fill:none;stroke:#0072FF;stroke-width:0.5102;stroke-linecap:round;stroke-linejoin:round;stroke-miterlimit:10;}
	.st6{fill:none;stroke:#D25A00;stroke-width:0;stroke-linecap:round;stroke-linejoin:round;stroke-miterlimit:10;}
	.st7{fill:#F8B682;}
	.st8{fill:none;stroke:#3366FF;stroke-width:0.7087;stroke-linecap:round;stroke-linejoin:round;stroke-miterlimit:10;}
	.st9{fill-rule:evenodd;clip-rule:evenodd;fill:#3366FF;stroke:#3366FF;stroke-width:0.25;stroke-miterlimit:10;}
	.st10{fill-rule:evenodd;clip-rule:evenodd;fill:#3366FF;}
	.st11{display:none;}
</style>
<g id="Livello_5">
	<g id="ARC">
		<path class="st0" d="M112.75,361.29c84.5,49.96,193.5,21.97,243.47-62.53s21.97-193.5-62.53-243.47s-193.5-21.97-243.47,62.53
			C19.01,170.6,17.2,235.74,45.45,290.17"/>
	</g>
	<g id="SPLINE">
		<path class="st1" d="M208.73,262.32c0.9-0.04,3,0,4.02,0.36c0.1,0.04,0.58,0.21,1.24,0.38c0.28,0.07,0.6,0.14,0.95,0.2
			c1.75,0.29,2.72,0.05,5.21-0.12c0.22-0.01,2.09-0.14,4.28-0.12c2.15,0.02,2.49,0.16,4.98,0.23c1.2,0.04,1.04,0,4.63,0
			c4.15,0,6.23,0,6.25,0c1.33,0.2,2.61,0.55,3.93-0.12c0.45-0.23,0.46-0.34,1.27-0.81c1.42-0.81,1.87-0.72,2.78-1.27
			c0.84-0.51,0.82-0.81,2.08-2.08c0.76-0.77,1.22-1.11,2.55-2.2c1.48-1.21,2.93-2.47,4.4-3.7c4.33-3.63,3.72-3.26,5.44-4.63
			c2.46-1.95,4.51-3.34,5.9-4.28c2-1.35,3.56-2.31,4.51-2.89c0.74-0.45,1.54-0.93,7.29-4.17c3.63-2.04,4.38-2.45,5.67-3.01
			c1.65-0.72,3.37-1.32,4.51-1.62c1.18-0.31,5.15-1.34,8.22,0.46c0.48,0.28,1.46,0.88,1.5,1.74c0.04,0.85-0.85,1.53-1.27,1.85
			c-3.78,2.83-12.04,8.58-13.64,10.07c-0.09,0.08-0.48,0.46-1.06,0.92c-0.69,0.55-1.11,0.81-1.97,1.39c-3.56,3.1-6.5,5.58-8.56,7.29
			c-3.82,3.18-4.68,3.82-7.18,6.02c-3.05,2.68-4.57,4.03-6.6,6.13c-1.36,1.42-2.7,2.91-4.98,4.63c-2.26,1.7-3.38,2.07-3.82,2.2
			c-1.41,0.42-2.05,0.21-3.82,0.81c-1.34,0.45-1.38,0.7-2.78,1.27c-2.11,0.86-2.66,0.55-5.09,1.27c-2.75,0.81-2.34,1.29-4.4,1.74
			c-1.86,0.4-2.21,0.02-5.32,0.35c-1.89,0.2-2.13,0.38-3.7,0.58c-2.42,0.3-4.33,0.18-6.36,0c-8.85-0.76-9.77-1.61-14.58-1.5
			c-2.51,0.06-4.93,0.44-7.52,0.81c-2.57,0.37-3.66,0.54-4.42,0.68c-1.34,0.24-1.55,0.27-2.03,0.37c-1.58,0.34-9.57-0.02-9.57-0.04
			c0,0-0.01,0.04,0.03,0.07c0.18,0.17-0.4,1.1-0.56,1.34c-1.21,1.43-2.91,2.5-2.91,2.5c-3.67,2.63-7.01,4.85-10.15,7.26
			c-2.12,1.63-2.16,1.64-4.52,3.25c-5.02,3.42-4.29,3-5.69,3.91c-3.99,2.61-7.26,4.37-8.12,4.82c-3.93,2.09-7.41,3.94-11.32,5.08
			c-0.53,0.15-1.54,0.43-2.89,0.96c-2.07,0.81-3.51,1.64-5.13,2.59c-0.66,0.39-2.6,1.54-5.03,3.3c-3.69,2.68-2.86,2.53-4.16,3.3
			c-0.2,0.12-0.69,0.4-1.02,0.96c-0.39,0.67-0.29,1.32-0.3,1.93c-0.02,1.21-0.46,1.86-0.91,3.05c-0.88,2.29-0.86,4.01-1.57,7.11
			c-0.82,3.56-1.39,3.58-2.59,7.57c-1.13,3.76-1.54,6.76-1.78,8.58c-0.41,3.09-0.69,7.25-0.3,12.19"/>
		<path class="st0" d="M199.67,264.88c3.8-1.76,10.04-3.02,12-3.1"/>
	</g>
	<g id="SPLINE_00000114071450130937507540000000061785091405438636_">
		<g>
			<path class="st2" d="M268.9,227.8c-7.26,9.41-16.69,16.77-27.24,22.17c-7.8,4.3-16.51,6.29-24.83,9.26
				c-1.9,0.73-5.32,2.12-7.23,2.76c-0.34,0.15-0.72,0.18-0.99,0.54l-0.1-0.3c2.79-0.94,5.51-2.07,8.26-3.13
				c8.31-2.99,17.01-4.99,24.79-9.29c7.78-4.14,15.25-9.07,21.34-15.5c2.04-2.12,3.92-4.39,5.8-6.66L268.9,227.8L268.9,227.8z"/>
		</g>
		<path class="st1" d="M287.42,179.54c0.74,0.86,1.42,2.29,1.25,4.22c-0.08,0.87,0.17,1.71-1.16,5.67
			c-2.76,8.23-3.82,10.65-3.82,10.65c-7.44,16.95-7.88,17.79-8.91,19.44c-2.17,3.46-4.23,6.08-5.98,8.21"/>
	</g>
	<g id="SPLINE_00000072990271926296944900000016681602996583909820_">
		<path class="st0" d="M287.15,180.49c-0.8,1.39-3.68,6.11-4.5,7.55c-1.07,1.86-2.02,3.21-4.74,6.83
			c-6.91,9.17-10.37,13.75-13.54,17.24c-5.38,5.93-10.1,10.05-12.15,11.8c-6.57,5.59-12.13,9.18-15.85,11.57
			c-3.75,2.4-6.81,4.36-11.34,6.6c-6.21,3.06-11.4,4.76-14.93,5.9c-7.04,2.28-10.54,3.46-10.88,3.01"/>
	</g>
	<g id="SPLINE_00000039842830971820950760000009550144844178876342_">
		<path class="st1" d="M200.44,192.85c-0.67,0.17-1.35,0.33-2.04,0.49c-5.13,1.23-5.66,1.02-10.95,2.27
			c-4.95,1.17-5.25,1.53-7.64,1.74c-1.83,0.16-5.26,0.22-7.37-0.38"/>
		<path class="st1" d="M231.08,202.62c0.21-0.14,0.43-0.29,0.64-0.43c3.84-2.6,7.42-5.03,11.71-8.71c0.48-0.41,2.3-2.03,5.95-5.27
			c3.2-2.85,4.38-3.91,5.89-5.33c1.67-1.58,2.98-2.89,4.42-4.35c6.52-6.63,6.63-7.16,10.67-11.16c3.58-3.54,5.26-5.15,6.62-6.37
			c1.43-1.29,2.14-1.93,2.95-2.58c3.8-3.06,7.88-5.4,10-7.22c0.93-0.79,1.57-1.37,1.57-1.37c0.62-0.56,0.83-0.78,1.41-1.29
			c0.11-0.1,0.74-0.66,1.44-1.23c0.84-0.68,1.62-1.26,3.15-2.38c0.8-0.59,1.29-0.88,1.63-1.54c0.13-0.25,0.43-0.85,0.22-1.46
			c0,0-0.14-0.42-0.59-0.74c-2.23-1.63-10.06,0.25-10.06,0.25c-3.57,1-6.03,1.64-9.63,3.25c-4.38,1.96-7.51,3.85-9.63,5.15
			c-4.31,2.64-7.37,4.97-8.4,5.76c-0.55,0.42-2.78,2.35-7.24,6.19c-4.83,4.16-6.61,5.73-8.83,7.79c-1.5,1.39-1.44,1.37-2.09,1.93
			c-2.36,2.04-4.39,3.35-7.98,5.48c-2.66,1.58-5.06,3-8.88,5.08c-3.26,1.77-5.2,2.83-7.99,4.17c-3.64,1.75-6.91,3.35-11.47,4.86
			c-2.29,0.76-4.19,1.27-6.12,1.75"/>
		<path class="st1" d="M217,211.2c2.36-1.29,7.69-4.29,14.07-8.57"/>
		<path class="st1" d="M231.84,215.93c-0.41,0.21-0.72,0.36-0.92,0.46c-1.77,0.86-4.3,1.99-7.41,3.01
			c-4.29,1.41-7.61,1.95-11.98,2.6c-12.6,1.89-12.66,1.58-18.58,2.6c-8.4,1.46-14.94,3.24-15.07,2.78
			c-0.05-0.19,1.04-0.65,1.72-0.98c1.91-0.92,3.54-1.16,3.92-1.23c1.85-0.31,5.28-1.61,12.14-4.23c10.67-4.07,19.69-8.87,20.42-9.26
			c0.22-0.12,0.53-0.29,0.92-0.5"/>
		<path class="st1" d="M244.87,207.02c-2.19,1.91-3.81,3.11-4.46,3.58c-3.71,2.71-6.92,4.48-8.57,5.32"/>
		<path class="st1" d="M287.42,179.54c0.47-0.82,0.81-1.42,0.9-1.56c2.53-4.4,5.79-11.57,5.79-11.57s6.16-13.59,7.52-18.28
			c0.04-0.12,0.66-1.39,0.46-2.89c-0.12-0.89-0.44-1.27-0.67-1.45c0,0-0.4-0.34-1.05-0.37c-1.2-0.04-8.26,4.66-14.25,12.12
			c-0.19,0.24-0.57,0.67-1.02,1.27c-1,1.33-1.65,2.47-5.93,8.34c-3.62,4.97-6.37,8.57-8.91,11.92
			c-5.89,7.74-10.03,12.92-11.92,15.28c-5.54,6.9-7.44,8.96-9.49,10.99c-1.46,1.44-2.81,2.68-3.99,3.71"/>
		<path class="st0" d="M287.15,180.49c0.2-0.35,0.44-0.73,0.57-0.96"/>
	</g>
	<g id="SPLINE_00000012464837476122224800000015516671982800866957_">
		<path class="st1" d="M130.71,183.67c-1.88,0.99-3.81,2.07-5.81,3.26c-10.98,6.53-18.53,13.11-22.59,16.68
			c-3.61,3.17-9.01,8.21-14.94,14.94c-2.5,2.85-8.97,10.39-18.42,25.37c-10.23,16.22-17.11,27.13-22.59,43.44
			c-0.32,0.95-0.62,1.89-0.91,2.81"/>
	</g>
	<g id="SPLINE_00000125577490425182683430000002646759342417351605_">
		<path class="st1" d="M182.01,186.97c2.6-0.98,4.99-1.34,7.17-1.78c8.66-1.76,15.3-2.75,17.72-3.13c8.3-1.29,14.13-2.2,21.55-4.52
			c0,0,7.04-2.2,18.07-10.08c0,0,3.5-2.51,3.29-4.57c-0.08-0.8-0.52-1.39-0.52-1.39s-0.28-0.38-0.7-0.65
			c-2.68-1.75-6.44-1.43-6.44-1.43c-4.36,0.3-6.28,1.17-13.42,2.57c-1.75,0.34-2.92,0.56-3.48,0.64c-2.2,0.3-4.34,0.58-7.57,1.01
			c-5.75,0.76-11.58,0.78-17.38,1.04c-3.48,0.16-10.92,0.49-13.9,0.69c-10.99,0.75-19.07,3.67-31.97,8.34
			c-2.22,0.8-4.37,1.58-6.5,2.38"/>
	</g>
</g>
<g id="prova_final">
	<g id="SPLINE_00000034047446716540298690000000167785557388018860_">
		<path class="st3" d="M337.02,245.85c-5.05-1.02-6.11,1.03-0.33,3.53"/>
	</g>
	<g id="SPLINE_00000004507684088693889520000011992534322674761405_">
		<path class="st3" d="M340.48,237.52c-5.55-1.09-6.37,0.71-1.86,3.31"/>
	</g>
	<g id="LWPOLYLINE_00000155142150140582523860000005887644779638332326_">
		<line class="st4" x1="339.19" y1="237.11" x2="339.19" y2="237.11"/>
	</g>
	<g id="LWPOLYLINE_00000129909408793532455100000015112722769265422509_">
		<line class="st4" x1="335.41" y1="248.97" x2="335.41" y2="248.97"/>
	</g>
	<g id="SPLINE_00000007389357530729546490000017066924330434519171_">
		<path class="st3" d="M362.24,249.08c-1.31-0.04-2.46,3.01-1.16,3.65"/>
	</g>
	<g id="LWPOLYLINE_00000070801031866508256070000010769717281117260940_">
		<line class="st5" x1="199.21" y1="250.99" x2="199.21" y2="250.99"/>
	</g>
	<g id="LWPOLYLINE_00000109726258646148556880000011925628061613407892_">
		<line class="st5" x1="112.75" y1="361.29" x2="112.75" y2="361.29"/>
	</g>
	<g id="SPLINE_00000170995385880373239290000015601440069502094507_">
		<path class="st3" d="M337.02,245.85c-6.84-1.74-5.55-6.83,1.6-5.01"/>
	</g>
	<g id="SPLINE_00000096055331417905240380000006964364716309710773_">
		<path class="st3" d="M172.43,196.98c-41.52-13.25-83.05-26.49-124.57-39.74c-5.99-1.91-2.2-13.77,3.78-11.86
			c0,0,127.64,40.72,148.8,47.47"/>
	</g>
	<g id="LWPOLYLINE_00000089558268320296682100000018350331803575107998_">
		<line class="st4" x1="185.03" y1="188.2" x2="185.03" y2="188.2"/>
	</g>
	<g id="LWPOLYLINE_00000137101649420204635150000003513879582707279548_">
		<line class="st4" x1="175.85" y1="198.07" x2="175.85" y2="198.07"/>
	</g>
	<g id="LWPOLYLINE_00000158750991599735037140000013711693703763353476_">
		<line class="st4" x1="112.75" y1="361.29" x2="112.75" y2="361.29"/>
	</g>
	<g id="SPLINE_00000072277326069767767520000016178743489037828752_">
		<path class="st6" d="M231.08,202.62c4.34,1.38,8.97,2.86,13.79,4.4"/>
	</g>
	<g id="SPLINE_00000123408710009509040830000012794875168054263972_">
		<path class="st6" d="M231.84,215.93c-4.95-1.58-9.89-3.16-14.84-4.73"/>
	</g>
	<g id="SPLINE_00000137100703737092055830000010300510739913309312_">
		<path class="st6" d="M287.28,233.62c-6.16-1.97-12.32-3.93-18.48-5.9"/>
	</g>
	<g id="HATCH_00000114033290404986657260000013328607531866503333_">
		<path class="st7" d="M244.87,207.02c-4.82-1.54-9.45-3.01-13.79-4.4c-6.38,4.28-11.71,7.28-14.07,8.57
			c4.95,1.58,9.89,3.16,14.84,4.73"/>
		<path class="st7" d="M231.84,215.93c1.65-0.85,4.85-2.61,8.57-5.32c0.65-0.48,2.27-1.67,4.46-3.58"/>
	</g>
	<g id="HATCH_00000159462281441742457310000004034262519130855852_">
		<path class="st7" d="M340.48,237.52c0,0-31.29-9.98-64.33-20.52c-0.66,1.37-0.97,1.88-1.37,2.52c-2.17,3.46-4.23,6.08-5.98,8.2
			c6.16,1.97,12.32,3.93,18.48,5.9c1.26-0.5,2.47-0.91,3.35-1.14c1.18-0.31,5.15-1.34,8.22,0.46c0.48,0.28,1.46,0.88,1.5,1.74
			c0.04,0.85-0.85,1.53-1.27,1.85c-0.25,0.19-0.52,0.39-0.8,0.6c12.81,4.09,25.61,8.17,38.42,12.26c-5.79-2.5-4.73-4.56,0.33-3.53
			c-6.84-1.74-5.55-6.83,1.6-5.01C334.11,238.23,334.93,236.44,340.48,237.52z"/>
	</g>
	<g id="HATCH_00000009567581733690373840000010481538608306157742_">
		<path class="st7" d="M369.48,252.25c-2.34-0.97-4.76-2.02-7.25-3.16c-1.31-0.04-2.45,3.01-1.16,3.65c2.69,0.54,5.27,1.11,7.71,1.7
			C370.12,254.11,370.42,253.21,369.48,252.25z"/>
	</g>
	<g id="HATCH_00000175314367691132690230000016481355266842118278_">
		<path class="st7" d="M182.01,186.97c-9.48-3.02-21.36-6.82-34.07-10.87c-43.35-13.83-96.3-30.72-96.3-30.72l0,0
			c-5.99-1.91-9.77,9.95-3.78,11.86c27.62,8.81,55.24,17.62,82.85,26.43c13.91,4.44,27.81,8.87,41.72,13.31
			c2.11,0.6,5.54,0.53,7.37,0.38c2.4-0.21,2.7-0.57,7.64-1.74c5.29-1.25,5.82-1.05,10.95-2.27c0.7-0.17,1.37-0.33,2.04-0.49
			C196.9,191.72,190.4,189.65,182.01,186.97z"/>
	</g>
</g>
<g id="_x30_">
	<g id="SPLINE_00000042698024207569146410000018110285856452908427_">
		<path class="st8" d="M276.15,217c33.04,10.54,64.33,20.52,64.33,20.52c4.44,2.71,9.42,5.51,14.93,8.28
			c4.93,2.48,9.66,4.61,14.08,6.45c0.93,0.97,0.64,1.87-0.7,2.18c-4.8-1.15-10.09-2.24-15.81-3.14c-5.86-0.93-11.31-1.53-16.29-1.9
			c-12.81-4.09-25.61-8.17-38.42-12.26"/>
	</g>
	<g id="HATCH_00000072961809998167954680000010762609180130144136_">
		<path class="st9" d="M203.21,279.8c-1.81,0.15-3.62,0.43-5.51,0.7c-2.57,0.37-3.66,0.54-4.42,0.68c-1.34,0.24-1.55,0.27-2.03,0.37
			c-1.58,0.34-9.57-0.02-9.57-0.04c0.21,0.24-0.38,1.18-0.53,1.42c-1.21,1.43-2.91,2.5-2.91,2.5c-3.67,2.63-7.01,4.85-10.15,7.26
			c-2.12,1.63-2.16,1.64-4.52,3.25c-5.02,3.42-4.29,3-5.69,3.91c-3.99,2.61-7.26,4.37-8.12,4.82c-3.93,2.09-7.41,3.94-11.32,5.08
			c-0.53,0.15-1.54,0.43-2.89,0.96c-2.07,0.81-3.51,1.64-5.13,2.59c-0.66,0.39-2.6,1.54-5.03,3.3c-3.69,2.68-2.86,2.53-4.16,3.3
			c-0.2,0.12-0.69,0.4-1.02,0.96c-0.39,0.67-0.29,1.32-0.3,1.93c-0.02,1.21-0.46,1.86-0.91,3.05c-0.88,2.29-0.86,4.01-1.57,7.11
			c-0.82,3.56-1.39,3.58-2.59,7.57c-1.13,3.76-1.54,6.76-1.78,8.58c-0.41,3.09-0.69,7.25-0.3,12.19
			c27.4,16.2,58.64,24.75,90.47,24.75V279.8z"/>
	</g>
	<g id="HATCH_00000096761479339733561690000013906608435633826457_">
		<path class="st9" d="M380.96,208.29H280.08c-2.09,4.74-3.22,7.22-3.93,8.71c33.04,10.54,64.33,20.52,64.33,20.52l0,0
			c4.44,2.71,9.42,5.51,14.93,8.28c2.33,1.17,4.61,2.26,6.83,3.28c2.49,1.14,4.91,2.19,7.25,3.16c0.93,0.97,0.64,1.87-0.7,2.18
			c-2.45-0.59-5.02-1.16-7.71-1.7c-2.59-0.52-5.29-1-8.09-1.45c-5.86-0.93-11.31-1.53-16.29-1.9c-12.81-4.09-25.61-8.17-38.42-12.26
			c-4.04,2.97-11.35,8.09-12.84,9.48c-0.09,0.08-0.48,0.46-1.06,0.92c-0.69,0.55-1.11,0.81-1.97,1.39c-3.56,3.1-6.5,5.58-8.56,7.29
			c-3.82,3.18-4.68,3.82-7.18,6.02c-3.05,2.68-4.57,4.03-6.6,6.13c-1.36,1.42-2.7,2.91-4.98,4.63c-2.26,1.7-3.38,2.07-3.82,2.2
			c-1.41,0.42-2.05,0.21-3.82,0.81c-1.34,0.45-1.38,0.7-2.78,1.27c-2.11,0.86-2.66,0.55-5.09,1.27c-2.75,0.81-2.34,1.29-4.4,1.74
			c-1.86,0.4-2.21,0.02-5.32,0.35c-1.89,0.2-2.13,0.38-3.7,0.58c-2.42,0.3-4.33,0.18-6.36,0c-8.85-0.76-9.77-1.61-14.58-1.5
			c-0.68,0.02-1.34,0.05-2.01,0.11v106.23C301.38,386.04,380.96,306.46,380.96,208.29z"/>
	</g>
	<g id="HATCH_00000054257694487562488240000013696753514100828304_">
		<path class="st10" d="M257.3,253.08c4.33-3.63,3.72-3.26,5.44-4.63c2.46-1.95,4.51-3.34,5.9-4.28c2-1.35,3.56-2.31,4.51-2.89
			c0.74-0.45,1.54-0.93,7.29-4.17c3.63-2.04,4.38-2.45,5.67-3.01c0.39-0.17,0.78-0.33,1.16-0.48c-6.16-1.97-12.32-3.93-18.48-5.9
			c-0.33,0.41-0.66,0.8-0.97,1.17c-2.43,2.92-5.43,6.49-10.07,10.42c-3.95,3.34-7.3,5.42-9.95,7.06c-2.38,1.47-6.82,4.18-12.96,6.71
			c-7.59,3.13-12.92,3.99-19.79,6.83c-0.47,0.19-1.92,0.8-3.93,1.54c-1.42,0.52-1.5,0.56-2.51,0.88c1.47-0.12,2.9-0.05,4.13,0.36
			c0.36,0.12,1.1,0.4,2.2,0.58c1.75,0.29,2.72,0.05,5.21-0.12c0.22-0.01,2.09-0.14,4.28-0.12c2.15,0.02,2.49,0.16,4.98,0.23
			c1.2,0.04,1.04,0,4.63,0c4.15,0,6.23,0,6.25,0c1.33,0.2,2.61,0.55,3.93-0.12c0.45-0.23,0.46-0.34,1.27-0.81
			c1.42-0.81,1.87-0.72,2.78-1.27c0.84-0.51,0.82-0.81,2.08-2.08c0.76-0.77,1.22-1.11,2.55-2.2
			C254.39,255.57,255.84,254.31,257.3,253.08z"/>
	</g>
	<g id="HATCH_00000099645447128760440570000012565824231777622162_">
		<path class="st10" d="M223.51,219.4c3.1-1.02,5.63-2.14,7.41-3.01c0.2-0.1,0.51-0.25,0.92-0.46c-4.95-1.58-9.89-3.16-14.84-4.73
			c-0.39,0.21-0.7,0.38-0.92,0.5c-0.55,0.29-5.78,3.08-12.87,6.17v5.33c2-0.27,4.62-0.63,8.32-1.19
			C215.9,221.35,219.23,220.81,223.51,219.4z"/>
	</g>
	<g id="HATCH_00000138538189070481832250000014406440052588287917_">
		<path class="st10" d="M203.21,217.86c-2.35,1.02-4.9,2.08-7.55,3.09c-6.86,2.62-10.29,3.92-12.14,4.23
			c-0.38,0.06-2.02,0.31-3.92,1.23c-0.68,0.33-1.77,0.79-1.72,0.98c0.13,0.46,6.67-1.33,15.07-2.78c4.18-0.72,5.44-0.78,10.27-1.42
			V217.86z"/>
	</g>
	<g id="HATCH_00000113323000393047894900000006458841946399980990_">
		<path class="st9" d="M97.6,207.92l-72.13,0.37c0,28.5,6.85,56.58,19.98,81.87c0.29-0.92,0.59-1.86,0.91-2.81
			c5.48-16.31,12.36-27.22,22.59-43.44c9.45-14.98,15.91-22.52,18.42-25.37C90.93,214.51,94.3,211.07,97.6,207.92z"/>
	</g>
	<g id="HATCH_00000096760890017298184840000001440337252991053750_">
		<path class="st9" d="M203.21,30.55v134.03c4.83-0.17,9.67-0.29,14.46-0.93c3.24-0.43,5.38-0.71,7.57-1.01
			c0.56-0.08,1.73-0.29,3.48-0.64c7.14-1.4,9.06-2.27,13.42-2.57c0,0,3.76-0.32,6.44,1.43c0.42,0.28,0.7,0.65,0.7,0.65
			s0.44,0.59,0.52,1.39c0.22,2.06-3.29,4.57-3.29,4.57c-11.03,7.87-18.07,10.08-18.07,10.08c-7.42,2.32-13.24,3.23-21.55,4.52
			c-0.8,0.12-2.05,0.32-3.69,0.58v9.48c1.05-0.29,2.14-0.62,3.34-1.02c4.55-1.52,7.83-3.12,11.47-4.86c2.79-1.34,4.74-2.4,7.99-4.17
			c3.82-2.08,6.22-3.5,8.88-5.08c3.59-2.13,5.62-3.44,7.98-5.48c0.65-0.56,0.59-0.55,2.09-1.93c2.22-2.06,4-3.62,8.83-7.79
			c4.46-3.85,6.69-5.77,7.24-6.19c1.03-0.8,4.09-3.13,8.4-5.76c2.12-1.3,5.25-3.19,9.63-5.15c3.6-1.61,6.06-2.25,9.63-3.25
			c0,0,4.09-0.98,7.2-0.91l50.8-37.15C313.21,57.6,259.91,30.55,203.21,30.55z"/>
	</g>
	<g id="HATCH_00000097479664149591572820000016682739959081410202_">
		<path class="st9" d="M346.68,103.36l-42.79,31.29v44.88l74.72,0C373.13,150.33,363.07,124.51,346.68,103.36z"/>
	</g>
	<g id="HATCH_00000003795594478507297090000004709613339156472995_">
		<path class="st9" d="M258.35,192.32c1.68-2.09,5.14-6.42,10.02-12.79h-9.68c-1.07,1.08-2.14,2.13-3.41,3.34
			c-1.5,1.42-2.68,2.49-5.89,5.33c-3.65,3.24-5.47,4.87-5.95,5.27c-4.29,3.68-7.87,6.11-11.71,8.71c-0.21,0.15-0.43,0.29-0.64,0.43
			c4.34,1.38,8.97,2.86,13.79,4.4c1.18-1.03,2.53-2.26,3.99-3.71C250.91,201.28,252.8,199.22,258.35,192.32z"/>
	</g>
	<g id="HATCH_00000027598169254311981720000003106732399779118228_">
		<path class="st9" d="M303.9,179.54h-16.48c0.74,0.86,1.42,2.29,1.25,4.22c-0.08,0.87,0.17,1.71-1.16,5.67
			c-2.76,8.23-3.82,10.65-3.82,10.65c-1.45,3.31-2.64,6.01-3.61,8.22h23.82V179.54z"/>
	</g>
	<g id="HATCH_00000039106508853411584670000009344865073743359667_">
		<path class="st10" d="M378.62,179.54l-74.72,0v28.76h77.06C380.99,199,380.15,189.39,378.62,179.54z"/>
	</g>
	<g id="HATCH_00000157298238298065904090000010519617442632510603_">
		<path class="st9" d="M270.27,177.05c2.55-3.35,5.29-6.95,8.91-11.92c4.28-5.86,4.93-7.01,5.93-8.34c0.45-0.59,0.82-1.03,1.02-1.27
			c1.39-1.74,2.85-3.32,4.27-4.74c-0.15,0.13-0.31,0.27-0.47,0.41c-2.12,1.82-6.2,4.15-10,7.22c-0.81,0.65-1.52,1.29-2.95,2.58
			c-1.36,1.23-3.04,2.83-6.62,6.37c-4.04,4.01-4.15,4.53-10.67,11.16c-0.34,0.34-0.67,0.68-1,1.01h9.68
			C268.98,178.74,269.61,177.91,270.27,177.05z"/>
	</g>
	<g id="HATCH_00000140000201272806516830000004681078046560886182_">
		<path class="st9" d="M303.9,134.66l-8.01,5.86c1.19,0.03,2.24,0.21,2.86,0.66c0.45,0.33,0.59,0.74,0.59,0.74
			c0.21,0.61-0.1,1.22-0.22,1.46c-0.22,0.43-0.5,0.7-0.89,0.99c1.06-0.65,1.82-0.99,2.15-0.98c0.65,0.02,1.05,0.37,1.05,0.37
			c0.23,0.18,0.55,0.56,0.67,1.45c0.19,1.5-0.43,2.77-0.46,2.89c-1.36,4.7-7.52,18.28-7.52,18.28s-3.25,7.17-5.79,11.57
			c-0.09,0.15-0.43,0.75-0.9,1.56l0,0h16.48V134.66z"/>
	</g>
	<g id="HATCH_00000160898858200839164680000008796603745976736142_">
		<path class="st9" d="M97.57,207.94c1.79-1.7,3.39-3.15,4.73-4.33c4.06-3.57,11.61-10.15,22.59-16.68c2-1.19,3.93-2.27,5.81-3.26
			c-27.62-8.81-55.24-17.62-82.85-26.43c-5.99-1.91-2.2-13.77,3.78-11.86l0,0c0,0,52.95,16.89,96.3,30.72
			c2.12-0.79,4.28-1.57,6.5-2.38c12.9-4.67,20.98-7.59,31.97-8.34c2.98-0.2,10.42-0.54,13.9-0.69c0.97-0.04,1.94-0.08,2.91-0.12
			V30.55c-98.17,0-177.75,79.58-177.75,177.75L97.57,207.94z"/>
	</g>
	<g id="HATCH_00000178897864542338639090000007457503997960268952_">
		<path class="st9" d="M203.21,182.64c-3.33,0.54-8.22,1.37-14.03,2.55c-2.19,0.44-4.57,0.8-7.17,1.78
			c8.39,2.68,14.89,4.75,18.43,5.88c0.92-0.23,1.83-0.46,2.78-0.73V182.64z"/>
	</g>
</g>
<g id="testo" class="st11">
	
		<text transform="matrix(1 0 0 1 148.0227 558.103)" style="display:inline;fill:#3F76EB; font-family:'Futura-Medium'; font-size:36px;">about</text>
	
		<text transform="matrix(1 0 0 1 147.4073 608.7407)" style="display:inline;fill:#3F76EB; font-family:'Futura-Medium'; font-size:36px;">works</text>
	
		<text transform="matrix(1 0 0 1 145.2809 661.0826)" style="display:inline;fill:#3F76EB; font-family:'Futura-Medium'; font-size:36px;">follow</text>
	
		<text transform="matrix(1 0 0 1 136.6762 711.2755)" style="display:inline;fill:#3F76EB; font-family:'Futura-Medium'; font-size:36px;">contact</text>
</g>
</svg>
